<svg width="18" height="18" viewBox="0 0 18 18" fill="none" xmlns="http://www.w3.org/2000/svg">
<path d="M12.6152 0.837891C14.5752 0.838061 16.1726 2.43462 16.1729 4.39453V14.9629C16.1728 15.8343 15.8322 16.5555 15.2158 16.916C14.5999 17.276 13.8034 17.2293 13.0391 16.8047L9.37891 14.7725C9.29059 14.7238 9.14825 14.6953 8.99609 14.6953C8.8817 14.6953 8.77296 14.7115 8.68848 14.7402L8.61328 14.7725L4.95312 16.8047C4.53661 17.0361 4.1076 17.1621 3.69727 17.1621C3.3659 17.1621 3.05574 17.0839 2.77734 16.9248V16.9238C2.16054 16.5634 1.82031 15.8415 1.82031 14.9697V4.39453C1.82057 2.43467 3.4171 0.838145 5.37695 0.837891H12.6152ZM5.38477 2.16211C4.15772 2.16219 3.1526 3.16752 3.15234 4.39453V14.9629C3.15242 15.3961 3.27858 15.6758 3.4541 15.7754C3.63371 15.8772 3.94528 15.8589 4.31543 15.6484L4.31641 15.6475L7.97656 13.6152C8.27173 13.4517 8.63786 13.3721 9 13.3721C9.36211 13.3721 9.72829 13.4517 10.0234 13.6152L13.6836 15.6475L13.6846 15.6484C14.0569 15.8601 14.3664 15.8829 14.5439 15.7764C14.7221 15.6691 14.8476 15.3868 14.8477 14.9629V4.39453C14.8474 3.16758 13.8422 2.16228 12.6152 2.16211H5.38477Z" fill="#9CAACE" stroke="#9CAACE" stroke-width="0.2"/>
</svg>
