<svg width="119" height="27" viewBox="0 0 119 27" fill="none" xmlns="http://www.w3.org/2000/svg">
<rect width="119" height="27" rx="10" fill="#EDFDF9"/>
<path d="M31.9 17V9.7H33.84L35.67 14.06H35.85L37.67 9.7H39.64V17H38.23V10.77L38.41 10.79L36.44 15.51H34.99L33.01 10.79L33.2 10.77V17H31.9ZM44.871 17V15.39H44.641V13.6C44.641 13.2867 44.5643 13.0533 44.411 12.9C44.2577 12.7467 44.021 12.67 43.701 12.67C43.5343 12.67 43.3343 12.6733 43.101 12.68C42.8677 12.6867 42.631 12.6967 42.391 12.71C42.1577 12.7167 41.9477 12.7267 41.761 12.74V11.56C41.9143 11.5467 42.0877 11.5333 42.281 11.52C42.4743 11.5067 42.671 11.5 42.871 11.5C43.0777 11.4933 43.271 11.49 43.451 11.49C44.011 11.49 44.4743 11.5633 44.841 11.71C45.2143 11.8567 45.4943 12.0867 45.681 12.4C45.8743 12.7133 45.971 13.1233 45.971 13.63V17H44.871ZM43.121 17.14C42.7277 17.14 42.381 17.07 42.081 16.93C41.7877 16.79 41.5577 16.59 41.391 16.33C41.231 16.07 41.151 15.7567 41.151 15.39C41.151 14.99 41.2477 14.6633 41.441 14.41C41.641 14.1567 41.9177 13.9667 42.271 13.84C42.631 13.7133 43.051 13.65 43.531 13.65H44.791V14.48H43.511C43.191 14.48 42.9443 14.56 42.771 14.72C42.6043 14.8733 42.521 15.0733 42.521 15.32C42.521 15.5667 42.6043 15.7667 42.771 15.92C42.9443 16.0733 43.191 16.15 43.511 16.15C43.7043 16.15 43.881 16.1167 44.041 16.05C44.2077 15.9767 44.3443 15.8567 44.451 15.69C44.5643 15.5167 44.6277 15.2833 44.641 14.99L44.981 15.38C44.9477 15.76 44.8543 16.08 44.701 16.34C44.5543 16.6 44.3477 16.8 44.081 16.94C43.821 17.0733 43.501 17.14 43.121 17.14ZM47.7099 17V11.57H48.8099V13.87H48.7799C48.7799 13.09 48.9466 12.5 49.2799 12.1C49.6133 11.7 50.1033 11.5 50.7499 11.5H50.9499V12.71H50.5699C50.1033 12.71 49.7399 12.8367 49.4799 13.09C49.2266 13.3367 49.0999 13.6967 49.0999 14.17V17H47.7099ZM55.9298 17L54.1098 14.46H53.2998L55.6098 11.57H57.0598L54.9298 14.24L54.9598 13.54L57.4998 17H55.9298ZM52.1298 17V9.7H53.5198V17H52.1298ZM60.3499 17L62.8399 9.7H65.1599L67.7199 17H66.2599L64.0899 10.67L64.5999 10.89H63.3499L63.8699 10.67L61.7699 17H60.3499ZM62.0899 15.06L62.5399 13.86H65.4999L65.9399 15.06H62.0899ZM70.8948 17.17C70.1481 17.17 69.5614 17.0133 69.1348 16.7C68.7148 16.38 68.4948 15.94 68.4748 15.38H69.7248C69.7448 15.5667 69.8481 15.7367 70.0348 15.89C70.2214 16.0433 70.5148 16.12 70.9148 16.12C71.2481 16.12 71.5114 16.06 71.7048 15.94C71.9048 15.82 72.0048 15.6567 72.0048 15.45C72.0048 15.27 71.9281 15.1267 71.7748 15.02C71.6281 14.9133 71.3748 14.8433 71.0148 14.81L70.5348 14.76C69.9281 14.6933 69.4614 14.52 69.1348 14.24C68.8081 13.96 68.6448 13.5867 68.6448 13.12C68.6448 12.7467 68.7381 12.4333 68.9248 12.18C69.1114 11.9267 69.3681 11.7367 69.6948 11.61C70.0281 11.4767 70.4081 11.41 70.8348 11.41C71.5014 11.41 72.0414 11.5567 72.4548 11.85C72.8681 12.1433 73.0848 12.5733 73.1048 13.14H71.8548C71.8414 12.9533 71.7481 12.7933 71.5748 12.66C71.4014 12.5267 71.1514 12.46 70.8248 12.46C70.5314 12.46 70.3048 12.5167 70.1448 12.63C69.9848 12.7433 69.9048 12.89 69.9048 13.07C69.9048 13.2433 69.9681 13.3767 70.0948 13.47C70.2281 13.5633 70.4414 13.6267 70.7348 13.66L71.2148 13.71C71.8548 13.7767 72.3548 13.9533 72.7148 14.24C73.0814 14.5267 73.2648 14.9133 73.2648 15.4C73.2648 15.76 73.1648 16.0733 72.9648 16.34C72.7714 16.6 72.4981 16.8033 72.1448 16.95C71.7914 17.0967 71.3748 17.17 70.8948 17.17ZM78.4013 17.04V15.72H79.9113C80.2913 15.72 80.6279 15.6633 80.9213 15.55C81.2213 15.43 81.4746 15.2633 81.6813 15.05C81.8879 14.8367 82.0446 14.5867 82.1513 14.3C82.2646 14.0067 82.3213 13.6833 82.3213 13.33C82.3213 12.9633 82.2646 12.6367 82.1513 12.35C82.0446 12.0567 81.8879 11.8067 81.6813 11.6C81.4746 11.3933 81.2213 11.2367 80.9213 11.13C80.6279 11.0233 80.2913 10.97 79.9113 10.97H78.4013V9.65H79.8213C80.4813 9.65 81.0579 9.74667 81.5513 9.94C82.0446 10.1333 82.4546 10.4 82.7813 10.74C83.1079 11.0733 83.3513 11.4567 83.5113 11.89C83.6779 12.3167 83.7613 12.76 83.7613 13.22V13.44C83.7613 13.88 83.6779 14.3133 83.5113 14.74C83.3513 15.1667 83.1079 15.5533 82.7813 15.9C82.4546 16.2467 82.0446 16.5233 81.5513 16.73C81.0579 16.9367 80.4813 17.04 79.8213 17.04H78.4013ZM77.1813 17.04V9.65H78.6013V17.04H77.1813ZM87.7828 17.19C87.3028 17.19 86.8795 17.1133 86.5128 16.96C86.1461 16.8067 85.8361 16.6 85.5828 16.34C85.3295 16.0733 85.1361 15.7733 85.0028 15.44C84.8761 15.1067 84.8128 14.76 84.8128 14.4V14.19C84.8128 13.8167 84.8795 13.4633 85.0128 13.13C85.1528 12.79 85.3495 12.49 85.6028 12.23C85.8628 11.9633 86.1761 11.7567 86.5428 11.61C86.9095 11.4567 87.3228 11.38 87.7828 11.38C88.2428 11.38 88.6561 11.4567 89.0228 11.61C89.3895 11.7567 89.6995 11.9633 89.9528 12.23C90.2128 12.49 90.4095 12.79 90.5428 13.13C90.6761 13.4633 90.7428 13.8167 90.7428 14.19V14.4C90.7428 14.76 90.6761 15.1067 90.5428 15.44C90.4161 15.7733 90.2261 16.0733 89.9728 16.34C89.7195 16.6 89.4095 16.8067 89.0428 16.96C88.6761 17.1133 88.2561 17.19 87.7828 17.19ZM87.7828 16C88.1228 16 88.4095 15.9267 88.6428 15.78C88.8761 15.6267 89.0528 15.4233 89.1728 15.17C89.2928 14.91 89.3528 14.6167 89.3528 14.29C89.3528 13.9567 89.2895 13.6633 89.1628 13.41C89.0428 13.15 88.8628 12.9467 88.6228 12.8C88.3895 12.6467 88.1095 12.57 87.7828 12.57C87.4561 12.57 87.1728 12.6467 86.9328 12.8C86.6995 12.9467 86.5195 13.15 86.3928 13.41C86.2661 13.6633 86.2028 13.9567 86.2028 14.29C86.2028 14.6167 86.2628 14.91 86.3828 15.17C86.5095 15.4233 86.6895 15.6267 86.9228 15.78C87.1561 15.9267 87.4428 16 87.7828 16ZM92.2099 17V11.57H93.3099V13.9H93.2099C93.2099 13.3467 93.2833 12.8867 93.4299 12.52C93.5766 12.1467 93.7933 11.8667 94.0799 11.68C94.3733 11.4933 94.7366 11.4 95.1699 11.4H95.2299C95.8766 11.4 96.3666 11.61 96.6999 12.03C97.0333 12.4433 97.1999 13.0633 97.1999 13.89V17H95.8099V13.77C95.8099 13.4367 95.7133 13.1667 95.5199 12.96C95.3333 12.7533 95.0733 12.65 94.7399 12.65C94.3999 12.65 94.1233 12.7567 93.9099 12.97C93.7033 13.1767 93.5999 13.4567 93.5999 13.81V17H92.2099ZM101.374 17.19C100.908 17.19 100.498 17.11 100.144 16.95C99.7976 16.79 99.5076 16.5767 99.2743 16.31C99.0476 16.0367 98.8743 15.7333 98.7543 15.4C98.641 15.0667 98.5843 14.7267 98.5843 14.38V14.19C98.5843 13.83 98.641 13.4833 98.7543 13.15C98.8743 12.81 99.0476 12.51 99.2743 12.25C99.5076 11.9833 99.7943 11.7733 100.134 11.62C100.474 11.46 100.868 11.38 101.314 11.38C101.901 11.38 102.391 11.51 102.784 11.77C103.184 12.0233 103.484 12.36 103.684 12.78C103.884 13.1933 103.984 13.64 103.984 14.12V14.62H99.1743V13.77H103.114L102.684 14.19C102.684 13.8433 102.634 13.5467 102.534 13.3C102.434 13.0533 102.281 12.8633 102.074 12.73C101.874 12.5967 101.621 12.53 101.314 12.53C101.008 12.53 100.748 12.6 100.534 12.74C100.321 12.88 100.158 13.0833 100.044 13.35C99.9376 13.61 99.8843 13.9233 99.8843 14.29C99.8843 14.63 99.9376 14.9333 100.044 15.2C100.151 15.46 100.314 15.6667 100.534 15.82C100.754 15.9667 101.034 16.04 101.374 16.04C101.714 16.04 101.991 15.9733 102.204 15.84C102.418 15.7 102.554 15.53 102.614 15.33H103.894C103.814 15.7033 103.661 16.03 103.434 16.31C103.208 16.59 102.918 16.8067 102.564 16.96C102.218 17.1133 101.821 17.19 101.374 17.19Z" fill="#27AE7A"/>
<path d="M14 12.83L16.83 15.66L22.5 10" stroke="#27AE7A" stroke-width="1.5" stroke-linecap="round" stroke-linejoin="round"/>
</svg>
