<svg width="11" height="14" viewBox="0 0 11 14" fill="none" xmlns="http://www.w3.org/2000/svg">
<ellipse cx="6.49525" cy="9.2935" rx="2.32338" ry="3.25273" fill="#FFCE51"/>
<path d="M10.2003 7.65158C9.22756 5.12374 5.76418 4.98743 6.6006 1.3134C6.66255 1.04079 6.37136 0.830134 6.13592 0.972635C3.88689 2.29851 2.26982 4.95646 3.62667 8.43843C3.73819 8.72343 3.40363 8.98984 3.16199 8.80397C2.04058 7.95517 1.92286 6.73462 2.02199 5.86103C2.05916 5.53885 1.63786 5.38396 1.45818 5.65037C1.03688 6.29472 0.609375 7.3356 0.609375 8.9031C0.844811 12.3727 3.77537 13.4383 4.82863 13.5746C6.33418 13.7667 7.96365 13.4879 9.13463 12.4161C10.4233 11.2203 10.8942 9.31202 10.2003 7.65158ZM4.4507 10.768C5.34287 10.5512 5.80135 9.9068 5.92527 9.3368C6.12972 8.45082 5.33048 7.58342 5.86951 6.1832C6.07396 7.34179 7.89549 8.06669 7.89549 9.33061C7.94506 10.8981 6.24744 12.2426 4.4507 10.768Z" fill="#FF7324"/>
</svg>
