<svg width="23" height="23" viewBox="0 0 23 23" fill="none" xmlns="http://www.w3.org/2000/svg">
<path d="M11.5096 16.2916C10.695 16.2916 9.87081 16.0808 9.22872 15.6687L3.45956 11.9024C2.38622 11.2029 1.74414 10.0241 1.74414 8.73994C1.74414 7.45577 2.38622 6.27703 3.45956 5.57744L9.23831 1.82077C10.5225 0.987025 12.5254 0.987025 13.8 1.83036L19.5404 5.59661C20.6041 6.29619 21.2462 7.47494 21.2462 8.74953C21.2462 10.0241 20.6041 11.2029 19.5404 11.9024L13.8 15.6687C13.1579 16.0904 12.3337 16.2916 11.5096 16.2916ZM11.5096 2.63536C10.9633 2.63536 10.4171 2.75994 10.0241 3.02828L4.25497 6.78494C3.58414 7.22577 3.19122 7.93494 3.19122 8.73994C3.19122 9.54494 3.57456 10.2541 4.25497 10.6949L10.0241 14.4612C10.8196 14.9787 12.2187 14.9787 13.0141 14.4612L18.7546 10.6949C19.4254 10.2541 19.8087 9.54494 19.8087 8.73994C19.8087 7.93494 19.4254 7.22577 18.7546 6.78494L13.0141 3.01869C12.6116 2.76953 12.0654 2.63536 11.5096 2.63536Z" fill="#A0B6FD"/>
<path d="M11.5 21.8021C11.0783 21.8021 10.6471 21.7446 10.3021 21.6296L7.24497 20.6138C5.79789 20.1346 4.65747 18.5534 4.66705 17.0296L4.67664 12.535C4.67664 12.1421 5.00247 11.8163 5.39539 11.8163C5.7883 11.8163 6.11414 12.1421 6.11414 12.535L6.10455 17.0296C6.10455 17.9305 6.85205 18.9655 7.70497 19.253L10.7621 20.2688C11.1454 20.3934 11.8546 20.3934 12.2379 20.2688L15.295 19.253C16.1479 18.9655 16.8954 17.9305 16.8954 17.0392V12.5925C16.8954 12.1996 17.2212 11.8738 17.6141 11.8738C18.0071 11.8738 18.3329 12.1996 18.3329 12.5925V17.0392C18.3329 18.563 17.2021 20.1346 15.755 20.6234L12.6979 21.6392C12.3529 21.7446 11.9216 21.8021 11.5 21.8021Z" fill="#A0B6FD"/>
<path d="M20.5083 15.0938C20.1154 15.0938 19.7896 14.7679 19.7896 14.375V8.625C19.7896 8.23208 20.1154 7.90625 20.5083 7.90625C20.9012 7.90625 21.2271 8.23208 21.2271 8.625V14.375C21.2271 14.7679 20.9012 15.0938 20.5083 15.0938Z" fill="#A0B6FD"/>
</svg>
