<svg width="23" height="23" viewBox="0 0 23 23" fill="none" xmlns="http://www.w3.org/2000/svg">
<path d="M16.5003 21.139H6.91699C6.52408 21.139 6.19824 20.8132 6.19824 20.4203C6.19824 20.0274 6.52408 19.7015 6.91699 19.7015H16.5003C16.8932 19.7015 17.2191 20.0274 17.2191 20.4203C17.2191 20.8132 16.8932 21.139 16.5003 21.139Z" fill="white"/>
<path d="M19.7105 5.34574L15.8772 8.08658C15.3693 8.45074 14.641 8.23033 14.4205 7.64574L12.6093 2.81574C12.3026 1.98199 11.1239 1.98199 10.8172 2.81574L8.99638 7.63616C8.77596 8.23033 8.05721 8.45074 7.54929 8.07699L3.71596 5.33616C2.9493 4.79949 1.93346 5.55658 2.24971 6.44783L6.23638 17.6124C6.37054 17.9957 6.73471 18.2449 7.13721 18.2449H16.2701C16.6726 18.2449 17.0368 17.9862 17.171 17.6124L21.1576 6.44783C21.4835 5.55658 20.4676 4.79949 19.7105 5.34574ZM14.1043 14.1912H9.31263C8.91971 14.1912 8.59388 13.8653 8.59388 13.4724C8.59388 13.0795 8.91971 12.7537 9.31263 12.7537H14.1043C14.4972 12.7537 14.823 13.0795 14.823 13.4724C14.823 13.8653 14.4972 14.1912 14.1043 14.1912Z" fill="white"/>
</svg>
