<svg width="15" height="18" viewBox="0 0 15 18" fill="none" xmlns="http://www.w3.org/2000/svg">
<path d="M0.453362 2.68347C0.395008 1.47546 1.33241 0.430498 2.53403 0.567731C3.99252 0.734301 5.4191 1.13787 6.75618 1.76703C8.75632 2.70819 10.4952 4.12543 11.8204 5.89462C13.1457 7.6638 14.0169 9.73096 14.3578 11.915C14.5857 13.3751 14.572 14.8576 14.3218 16.3041C14.1157 17.4958 12.8493 18.1016 11.7065 17.706C10.5636 17.3104 9.98674 16.0587 10.0998 14.8546C10.1704 14.1027 10.1479 13.3422 10.0305 12.5905C9.80006 11.1139 9.21106 9.71644 8.31512 8.52038C7.41918 7.32433 6.24363 6.36621 4.89145 5.72995C4.20302 5.40601 3.4795 5.17053 2.73808 5.02692C1.55072 4.79693 0.511714 3.89149 0.453362 2.68347Z" fill="#3D65F4"/>
</svg>
