<svg width="21" height="21" viewBox="0 0 21 21" fill="none" xmlns="http://www.w3.org/2000/svg">
<path d="M10.395 13.1162C10.2288 13.1162 10.0625 13.055 9.93129 12.9237L7.69129 10.6837C7.43754 10.43 7.43754 10.01 7.69129 9.75623C7.94504 9.50248 8.36504 9.50248 8.61879 9.75623L10.395 11.5325L12.1713 9.75623C12.425 9.50248 12.845 9.50248 13.0988 9.75623C13.3525 10.01 13.3525 10.43 13.0988 10.6837L10.8588 12.9237C10.7275 13.055 10.5613 13.1162 10.395 13.1162Z" fill="#9CAACE"/>
<path d="M10.3945 13.055C10.0358 13.055 9.73828 12.7575 9.73828 12.3988V3.5C9.73828 3.14125 10.0358 2.84375 10.3945 2.84375C10.7533 2.84375 11.0508 3.14125 11.0508 3.5V12.3988C11.0508 12.7575 10.7533 13.055 10.3945 13.055Z" fill="#9CAACE"/>
<path d="M10.5 18.3137C5.99375 18.3137 2.84375 15.1637 2.84375 10.6575C2.84375 10.2987 3.14125 10.0012 3.5 10.0012C3.85875 10.0012 4.15625 10.2987 4.15625 10.6575C4.15625 14.3937 6.76375 17.0012 10.5 17.0012C14.2362 17.0012 16.8438 14.3937 16.8438 10.6575C16.8438 10.2987 17.1412 10.0012 17.5 10.0012C17.8588 10.0012 18.1562 10.2987 18.1562 10.6575C18.1562 15.1637 15.0063 18.3137 10.5 18.3137Z" fill="#9CAACE"/>
</svg>
