<svg width="13" height="13" viewBox="0 0 13 13" fill="none" xmlns="http://www.w3.org/2000/svg">
<path d="M6.5001 9.39791C6.98773 9.39791 7.38302 9.00262 7.38302 8.515C7.38302 8.02738 6.98773 7.63208 6.5001 7.63208C6.01248 7.63208 5.61719 8.02738 5.61719 8.515C5.61719 9.00262 6.01248 9.39791 6.5001 9.39791Z" fill="#9676F1"/>
<path d="M9.90183 5.16212V4.48504C9.90183 3.02254 9.54975 1.08337 6.50016 1.08337C3.45058 1.08337 3.0985 3.02254 3.0985 4.48504V5.16212C1.58183 5.35171 1.0835 6.12087 1.0835 8.01129V9.01879C1.0835 11.2396 1.76058 11.9167 3.98141 11.9167H9.01891C11.2397 11.9167 11.9168 11.2396 11.9168 9.01879V8.01129C11.9168 6.12087 11.4185 5.35171 9.90183 5.16212ZM6.50016 10.1509C5.59558 10.1509 4.86433 9.41421 4.86433 8.51504C4.86433 7.61046 5.601 6.87921 6.50016 6.87921C7.39933 6.87921 8.136 7.61587 8.136 8.51504C8.136 9.41962 7.40475 10.1509 6.50016 10.1509ZM3.98141 5.11337C3.93808 5.11337 3.90016 5.11337 3.85683 5.11337V4.48504C3.85683 2.89796 4.30641 1.84171 6.50016 1.84171C8.69391 1.84171 9.14349 2.89796 9.14349 4.48504V5.11879C9.10016 5.11879 9.06225 5.11879 9.01891 5.11879H3.98141V5.11337Z" fill="#9676F1"/>
</svg>
