<svg width="32" height="37" viewBox="0 0 32 37" fill="none" xmlns="http://www.w3.org/2000/svg">
<path d="M4.16658 12.5115V29.7234L0.380924 27.1894C0.141758 27.0293 -0.00126971 26.76 8.49565e-06 26.4722L0.0705916 10.5869C0.0718732 10.2983 0.218018 10.0297 0.459587 9.87196L15.3598 0.139724C15.6288 -0.0359977 15.9735 -0.0467453 16.253 0.111851L19.9416 2.20525L4.16658 12.5115Z" fill="url(#paint0_linear_4_31)"/>
<path d="M23.4927 4.39105L27.6161 6.68569L11.8186 17.0503V29.1947L15.139 31.3844L26.6564 24.0015V15.9237L23.2156 18.1657C23.1585 18.2029 23.0829 18.1619 23.0829 18.0938V13.2635C23.0829 13.2348 23.0973 13.2079 23.1213 13.192L29.7032 8.82113C30.2738 8.4423 31.0365 8.85135 31.0365 9.53629V26.3766C31.0365 26.6671 30.8896 26.9378 30.6462 27.0962L15.6312 36.8613C15.3424 37.0491 14.9692 37.0461 14.6836 36.8536L7.70985 32.1553C7.47303 31.9958 7.33105 31.7289 7.33105 31.4434V14.8587C7.33105 14.5687 7.47743 14.2984 7.72023 14.1399L22.6061 4.42232C22.8729 4.24813 23.2143 4.23608 23.4927 4.39105Z" fill="url(#paint1_linear_4_31)"/>
<path d="M15.0927 18.4588L21.8097 14.0528C21.8667 14.0153 21.9426 14.0563 21.9426 14.1246V18.9623C21.9426 18.9913 21.928 19.0183 21.9037 19.0342L18.6627 21.1539C18.6385 21.1698 18.6238 21.1968 18.6238 21.2258V26.3388C18.6238 26.3677 18.6093 26.3947 18.5852 26.4105L16.3409 27.8875C16.0533 28.0767 15.6806 28.0759 15.394 27.8854L14.7434 27.4532C14.7194 27.4373 14.7051 27.4105 14.7051 27.3817V19.1766C14.7051 18.8873 14.8508 18.6174 15.0927 18.4588Z" fill="url(#paint2_linear_4_31)"/>
<defs>
<linearGradient id="paint0_linear_4_31" x1="3.53389" y1="8.8367" x2="18.2496" y2="19.9872" gradientUnits="userSpaceOnUse">
<stop stop-color="#182B68"/>
<stop offset="0.490385" stop-color="#24409A"/>
<stop offset="1" stop-color="#3055CE"/>
</linearGradient>
<linearGradient id="paint1_linear_4_31" x1="11.5319" y1="14.0095" x2="28.0247" y2="27.5058" gradientUnits="userSpaceOnUse">
<stop stop-color="#182B68"/>
<stop offset="0.490385" stop-color="#24409A"/>
<stop offset="1" stop-color="#3055CE"/>
</linearGradient>
<linearGradient id="paint2_linear_4_31" x1="15.9877" y1="18.1978" x2="22.2554" y2="21.8599" gradientUnits="userSpaceOnUse">
<stop stop-color="#182B68"/>
<stop offset="0.490385" stop-color="#24409A"/>
<stop offset="1" stop-color="#3055CE"/>
</linearGradient>
</defs>
</svg>
