<svg width="23" height="23" viewBox="0 0 23 23" fill="none" xmlns="http://www.w3.org/2000/svg">
<path d="M11.4998 16.052C11.1165 16.052 10.7332 16.0233 10.369 15.9562C8.33734 15.6591 6.48775 14.49 5.31859 12.7554C4.504 11.5287 4.07275 10.1008 4.07275 8.62496C4.07275 4.53288 7.40775 1.19788 11.4998 1.19788C15.5919 1.19788 18.9269 4.53288 18.9269 8.62496C18.9269 10.1008 18.4957 11.5287 17.6811 12.7554C16.5023 14.4995 14.6528 15.6591 12.6019 15.9658C12.2665 16.0233 11.8832 16.052 11.4998 16.052ZM11.4998 2.63538C8.19359 2.63538 5.51025 5.31871 5.51025 8.62496C5.51025 9.82288 5.85525 10.9729 6.50692 11.9504C7.45567 13.3495 8.94109 14.2887 10.5894 14.5283C11.2028 14.6337 11.8065 14.6337 12.3719 14.5283C14.049 14.2887 15.5344 13.34 16.4832 11.9408C17.1348 10.9633 17.4798 9.81328 17.4798 8.61537C17.4894 5.3187 14.8061 2.63538 11.4998 2.63538Z" fill="#A0B6FD"/>
<path d="M6.20002 21.6488C6.06585 21.6488 5.94127 21.6296 5.8071 21.6009C5.18419 21.4571 4.70502 20.9779 4.56127 20.355L4.22585 18.9463C4.20668 18.86 4.1396 18.7929 4.04377 18.7642L2.46252 18.3904C1.86835 18.2467 1.39877 17.8058 1.23585 17.2213C1.07293 16.6367 1.23585 16.0042 1.6671 15.5729L5.4046 11.8354C5.55794 11.6821 5.76877 11.6054 5.9796 11.6246C6.19043 11.6438 6.3821 11.7588 6.50669 11.9408C7.45544 13.34 8.94085 14.2888 10.5988 14.5283C11.2121 14.6338 11.8159 14.6338 12.3813 14.5283C14.0584 14.2888 15.5438 13.34 16.4925 11.9408C16.6075 11.7588 16.8088 11.6438 17.0196 11.6246C17.2304 11.6054 17.4413 11.6821 17.5946 11.8354L21.3321 15.5729C21.7634 16.0042 21.9263 16.6367 21.7634 17.2213C21.6004 17.8058 21.1213 18.2563 20.5367 18.3904L18.9554 18.7642C18.8692 18.7833 18.8021 18.8504 18.7734 18.9463L18.4379 20.355C18.2942 20.9779 17.815 21.4571 17.1921 21.6009C16.5692 21.7542 15.9271 21.5338 15.5246 21.045L11.4996 16.4163L7.4746 21.0546C7.14877 21.4379 6.68877 21.6488 6.20002 21.6488ZM5.83585 13.4454L2.68293 16.5984C2.59668 16.6846 2.60627 16.7804 2.62543 16.8379C2.63502 16.8859 2.68293 16.9817 2.79793 17.0008L4.37918 17.3746C5.0021 17.5183 5.48127 17.9975 5.62502 18.6204L5.96043 20.0292C5.98918 20.1538 6.08502 20.1921 6.14252 20.2113C6.20002 20.2208 6.29585 20.2304 6.3821 20.1346L10.0525 15.9083C8.42335 15.5921 6.92835 14.72 5.83585 13.4454ZM12.9467 15.8988L16.6171 20.1154C16.7034 20.2208 16.8088 20.2208 16.8663 20.2017C16.9238 20.1921 17.01 20.1442 17.0484 20.0196L17.3838 18.6109C17.5275 17.9879 18.0067 17.5088 18.6296 17.365L20.2109 16.9913C20.3259 16.9625 20.3738 16.8763 20.3834 16.8283C20.4025 16.7804 20.4121 16.675 20.3259 16.5888L17.1729 13.4358C16.0709 14.7104 14.5854 15.5825 12.9467 15.8988Z" fill="#A0B6FD"/>
<path d="M13.3112 12.3529C13.062 12.3529 12.7649 12.2858 12.4103 12.075L11.4999 11.5287L10.5895 12.0654C9.75577 12.5637 9.20951 12.2762 9.00827 12.1325C8.80701 11.9887 8.37577 11.5575 8.59618 10.6087L8.82618 9.62166L8.05952 8.91248C7.63785 8.49081 7.48452 7.98291 7.62827 7.52291C7.77202 7.06291 8.19368 6.73707 8.78785 6.64123L9.81327 6.46874L10.302 5.39541C10.5799 4.84916 11.0112 4.54248 11.4999 4.54248C11.9887 4.54248 12.4295 4.85875 12.6978 5.405L13.2633 6.53583L14.212 6.65083C14.7966 6.74666 15.2183 7.07248 15.3716 7.53248C15.5153 7.99248 15.362 8.5004 14.9403 8.92207L14.1449 9.7175L14.3941 10.6087C14.6145 11.5575 14.1833 11.9887 13.982 12.1325C13.8766 12.2187 13.6466 12.3529 13.3112 12.3529ZM9.20951 8.04042L9.87077 8.70164C10.1774 9.00831 10.3308 9.52583 10.2349 9.94749L10.0528 10.7141L10.8195 10.2637C11.2316 10.0241 11.7874 10.0241 12.1899 10.2637L12.9566 10.7141L12.7841 9.94749C12.6883 9.51624 12.832 9.00831 13.1387 8.70164L13.7999 8.04042L12.9662 7.89665C12.5637 7.82956 12.1612 7.5325 11.9791 7.16833L11.4999 6.22916L11.0208 7.18749C10.8483 7.54207 10.4458 7.84875 10.0433 7.91583L9.20951 8.04042Z" fill="#A0B6FD"/>
</svg>
