<svg width="23" height="23" viewBox="0 0 23 23" fill="none" xmlns="http://www.w3.org/2000/svg">
<path d="M18.9463 10.7812H15.0746C13.1483 10.7812 12.2188 9.92829 12.2188 8.16496V3.81413C12.2188 2.05079 13.1579 1.19788 15.0746 1.19788H18.9463C20.8725 1.19788 21.8021 2.05079 21.8021 3.81413V8.15538C21.8021 9.92829 20.8629 10.7812 18.9463 10.7812ZM15.0746 2.63538C13.7904 2.63538 13.6562 2.99954 13.6562 3.81413V8.15538C13.6562 8.97954 13.7904 9.33413 15.0746 9.33413H18.9463C20.2304 9.33413 20.3646 8.96996 20.3646 8.15538V3.81413C20.3646 2.98996 20.2304 2.63538 18.9463 2.63538H15.0746Z" fill="#A0B6FD"/>
<path d="M18.9463 21.8021H15.0746C13.1483 21.8021 12.2188 20.8629 12.2188 18.9463V15.0746C12.2188 13.1483 13.1579 12.2188 15.0746 12.2188H18.9463C20.8725 12.2188 21.8021 13.1579 21.8021 15.0746V18.9463C21.8021 20.8629 20.8629 21.8021 18.9463 21.8021ZM15.0746 13.6562C13.9437 13.6562 13.6562 13.9437 13.6562 15.0746V18.9463C13.6562 20.0771 13.9437 20.3646 15.0746 20.3646H18.9463C20.0771 20.3646 20.3646 20.0771 20.3646 18.9463V15.0746C20.3646 13.9437 20.0771 13.6562 18.9463 13.6562H15.0746Z" fill="#A0B6FD"/>
<path d="M7.92525 10.7812H4.05359C2.12734 10.7812 1.19775 9.92829 1.19775 8.16496V3.81413C1.19775 2.05079 2.13692 1.19788 4.05359 1.19788H7.92525C9.8515 1.19788 10.7811 2.05079 10.7811 3.81413V8.15538C10.7811 9.92829 9.84192 10.7812 7.92525 10.7812ZM4.05359 2.63538C2.76942 2.63538 2.63525 2.99954 2.63525 3.81413V8.15538C2.63525 8.97954 2.76942 9.33413 4.05359 9.33413H7.92525C9.20942 9.33413 9.34359 8.96996 9.34359 8.15538V3.81413C9.34359 2.98996 9.20942 2.63538 7.92525 2.63538H4.05359Z" fill="#A0B6FD"/>
<path d="M7.92525 21.8021H4.05359C2.12734 21.8021 1.19775 20.8629 1.19775 18.9463V15.0746C1.19775 13.1483 2.13692 12.2188 4.05359 12.2188H7.92525C9.8515 12.2188 10.7811 13.1579 10.7811 15.0746V18.9463C10.7811 20.8629 9.84192 21.8021 7.92525 21.8021ZM4.05359 13.6562C2.92275 13.6562 2.63525 13.9437 2.63525 15.0746V18.9463C2.63525 20.0771 2.92275 20.3646 4.05359 20.3646H7.92525C9.05609 20.3646 9.34359 20.0771 9.34359 18.9463V15.0746C9.34359 13.9437 9.05609 13.6562 7.92525 13.6562H4.05359Z" fill="#A0B6FD"/>
</svg>
