<svg width="20" height="25" viewBox="0 0 20 25" fill="none" xmlns="http://www.w3.org/2000/svg">
<path d="M12.1575 2.83086C12.1005 2.82458 12.0815 2.84522 12.1019 2.89861C12.1153 2.93428 12.1108 2.97085 12.1041 3.00741C11.9237 4.00213 11.5895 4.94322 11.1552 5.85538C10.7615 6.68206 10.2715 7.44122 9.66646 8.12433C8.899 8.99072 7.96328 9.59621 6.83419 9.88561C6.77676 9.90041 6.72091 9.91589 6.65876 9.89884C6.6231 9.8892 6.57845 9.8948 6.57576 9.95358C6.57307 10.0108 6.61277 10.0258 6.65158 10.0164C6.75994 9.99015 6.85596 10.0339 6.95377 10.0619C7.75578 10.2932 8.47119 10.6789 9.10158 11.2316C9.62137 11.6875 10.0416 12.223 10.435 12.7847C10.8474 13.3734 11.1356 14.0267 11.4311 14.6772C11.7564 15.3933 11.9527 16.1462 12.1055 16.9134C12.1129 16.9502 12.114 16.9866 12.0998 17.022C12.0915 17.0429 12.0873 17.066 12.1088 17.0776C12.1378 17.0934 12.1721 17.0902 12.2019 17.0801C12.2248 17.0725 12.2264 17.0465 12.2172 17.0265C12.1891 16.9664 12.2125 16.9083 12.223 16.8504C12.4094 15.8227 12.774 14.8583 13.2292 13.9208C13.6173 13.1215 14.1061 12.3939 14.6975 11.7373C15.4553 10.8956 16.3791 10.3105 17.4842 10.0287C17.5389 10.0148 17.5923 9.99822 17.6527 10.0159C17.6908 10.0272 17.7386 10.0207 17.7392 9.95784C17.7399 9.90041 17.6984 9.88875 17.6601 9.89839C17.5589 9.92397 17.4696 9.88269 17.3783 9.85734C16.1707 9.52038 15.2116 8.82112 14.422 7.85961C13.7671 7.06232 13.2893 6.16811 12.8785 5.22858C12.5636 4.50823 12.3605 3.75805 12.208 2.99104C12.2019 2.96098 12.2024 2.93159 12.2129 2.90265C12.2327 2.84724 12.2147 2.82234 12.1575 2.83086Z" fill="#F2C300"/>
<path d="M12.1575 2.83086C12.1005 2.82458 12.0815 2.84522 12.1019 2.89861C12.1153 2.93428 12.1108 2.97085 12.1041 3.00741C11.9237 4.00213 11.5895 4.94322 11.1552 5.85538C10.7615 6.68206 10.2715 7.44122 9.66646 8.12433C8.899 8.99072 7.96328 9.59621 6.83419 9.88561C6.77676 9.90041 6.72091 9.91589 6.65876 9.89884C6.6231 9.8892 6.57845 9.8948 6.57576 9.95358C6.57307 10.0108 6.61277 10.0258 6.65158 10.0164C6.75994 9.99015 6.85596 10.0339 6.95377 10.0619C7.75578 10.2932 8.47119 10.6789 9.10158 11.2316C9.62137 11.6875 10.0416 12.223 10.435 12.7847C10.8474 13.3734 11.1356 14.0267 11.4311 14.6772C11.7564 15.3933 11.9527 16.1462 12.1055 16.9134C12.1129 16.9502 12.114 16.9866 12.0998 17.022C12.0915 17.0429 12.0873 17.066 12.1088 17.0776C12.1378 17.0934 12.1721 17.0902 12.2019 17.0801C12.2248 17.0725 12.2264 17.0465 12.2172 17.0265C12.1891 16.9664 12.2125 16.9083 12.223 16.8504C12.4094 15.8227 12.774 14.8583 13.2292 13.9208C13.6173 13.1215 14.1061 12.3939 14.6975 11.7373C15.4553 10.8956 16.3791 10.3105 17.4842 10.0287C17.5389 10.0148 17.5923 9.99822 17.6527 10.0159C17.6908 10.0272 17.7386 10.0207 17.7392 9.95784C17.7399 9.90041 17.6984 9.88875 17.6601 9.89839C17.5589 9.92397 17.4696 9.88269 17.3783 9.85734C16.1707 9.52038 15.2116 8.82112 14.422 7.85961C13.7671 7.06232 13.2893 6.16811 12.8785 5.22858C12.5636 4.50823 12.3605 3.75805 12.208 2.99104C12.2019 2.96098 12.2024 2.93159 12.2129 2.90265C12.2327 2.84724 12.2147 2.82234 12.1575 2.83086Z" fill="url(#paint0_linear_4_314)"/>
<path d="M12.1575 2.83086C12.1005 2.82458 12.0815 2.84522 12.1019 2.89861C12.1153 2.93428 12.1108 2.97085 12.1041 3.00741C11.9237 4.00213 11.5895 4.94322 11.1552 5.85538C10.7615 6.68206 10.2715 7.44122 9.66646 8.12433C8.899 8.99072 7.96328 9.59621 6.83419 9.88561C6.77676 9.90041 6.72091 9.91589 6.65876 9.89884C6.6231 9.8892 6.57845 9.8948 6.57576 9.95358C6.57307 10.0108 6.61277 10.0258 6.65158 10.0164C6.75994 9.99015 6.85596 10.0339 6.95377 10.0619C7.75578 10.2932 8.47119 10.6789 9.10158 11.2316C9.62137 11.6875 10.0416 12.223 10.435 12.7847C10.8474 13.3734 11.1356 14.0267 11.4311 14.6772C11.7564 15.3933 11.9527 16.1462 12.1055 16.9134C12.1129 16.9502 12.114 16.9866 12.0998 17.022C12.0915 17.0429 12.0873 17.066 12.1088 17.0776C12.1378 17.0934 12.1721 17.0902 12.2019 17.0801C12.2248 17.0725 12.2264 17.0465 12.2172 17.0265C12.1891 16.9664 12.2125 16.9083 12.223 16.8504C12.4094 15.8227 12.774 14.8583 13.2292 13.9208C13.6173 13.1215 14.1061 12.3939 14.6975 11.7373C15.4553 10.8956 16.3791 10.3105 17.4842 10.0287C17.5389 10.0148 17.5923 9.99822 17.6527 10.0159C17.6908 10.0272 17.7386 10.0207 17.7392 9.95784C17.7399 9.90041 17.6984 9.88875 17.6601 9.89839C17.5589 9.92397 17.4696 9.88269 17.3783 9.85734C16.1707 9.52038 15.2116 8.82112 14.422 7.85961C13.7671 7.06232 13.2893 6.16811 12.8785 5.22858C12.5636 4.50823 12.3605 3.75805 12.208 2.99104C12.2019 2.96098 12.2024 2.93159 12.2129 2.90265C12.2327 2.84724 12.2147 2.82234 12.1575 2.83086Z" fill="url(#paint1_linear_4_314)"/>
<path d="M4.39715 0.00129804C4.35228 -0.00363739 4.33725 0.0125155 4.35317 0.054691C4.36394 0.0827332 4.36013 0.111673 4.35497 0.140388C4.21297 0.923999 3.9496 1.66521 3.60748 2.38376C3.29745 3.03479 2.91136 3.63288 2.43486 4.17106C1.83027 4.8535 1.09333 5.33044 0.203832 5.55837C0.158515 5.57003 0.114763 5.58237 0.0656328 5.56891C0.037591 5.56128 0.00237179 5.56577 0.000127792 5.61198C-0.00211525 5.65708 0.0292969 5.66897 0.0598068 5.66156C0.14528 5.64092 0.220876 5.67525 0.297823 5.69746C0.929558 5.87962 1.4931 6.18337 1.98978 6.61881C2.3992 6.97775 2.73032 7.39973 3.04013 7.84212C3.36497 8.30583 3.592 8.82046 3.82486 9.33285C4.08106 9.89683 4.23585 10.49 4.35609 11.0943C4.36192 11.1233 4.36282 11.152 4.35161 11.1798C4.3451 11.1962 4.34174 11.2144 4.35879 11.2236C4.38167 11.2359 4.40859 11.2334 4.43215 11.2256C4.45009 11.2195 4.45144 11.1991 4.44404 11.1834C4.42183 11.1361 4.44045 11.0903 4.44875 11.0448C4.59569 10.2351 4.88261 9.47553 5.24133 8.73701C5.5471 8.10752 5.93207 7.53433 6.39779 7.01723C6.99475 6.35432 7.72228 5.8933 8.59294 5.67143C8.63623 5.66044 8.67796 5.64743 8.72575 5.66134C8.75581 5.67009 8.79327 5.66515 8.79394 5.61557C8.79439 5.57026 8.76164 5.56106 8.73158 5.56869C8.65194 5.58888 8.58149 5.55635 8.50971 5.53638C7.55851 5.27099 6.80317 4.72024 6.18108 3.96265C5.66533 3.33451 5.28889 2.63031 4.96517 1.89022C4.71706 1.32287 4.5571 0.731967 4.43708 0.127601C4.43237 0.103821 4.43259 0.0809384 4.44089 0.058056C4.45637 0.0140858 4.44224 -0.00543209 4.39715 0.00129804Z" fill="#F2C300"/>
<path d="M4.39715 0.00129804C4.35228 -0.00363739 4.33725 0.0125155 4.35317 0.054691C4.36394 0.0827332 4.36013 0.111673 4.35497 0.140388C4.21297 0.923999 3.9496 1.66521 3.60748 2.38376C3.29745 3.03479 2.91136 3.63288 2.43486 4.17106C1.83027 4.8535 1.09333 5.33044 0.203832 5.55837C0.158515 5.57003 0.114763 5.58237 0.0656328 5.56891C0.037591 5.56128 0.00237179 5.56577 0.000127792 5.61198C-0.00211525 5.65708 0.0292969 5.66897 0.0598068 5.66156C0.14528 5.64092 0.220876 5.67525 0.297823 5.69746C0.929558 5.87962 1.4931 6.18337 1.98978 6.61881C2.3992 6.97775 2.73032 7.39973 3.04013 7.84212C3.36497 8.30583 3.592 8.82046 3.82486 9.33285C4.08106 9.89683 4.23585 10.49 4.35609 11.0943C4.36192 11.1233 4.36282 11.152 4.35161 11.1798C4.3451 11.1962 4.34174 11.2144 4.35879 11.2236C4.38167 11.2359 4.40859 11.2334 4.43215 11.2256C4.45009 11.2195 4.45144 11.1991 4.44404 11.1834C4.42183 11.1361 4.44045 11.0903 4.44875 11.0448C4.59569 10.2351 4.88261 9.47553 5.24133 8.73701C5.5471 8.10752 5.93207 7.53433 6.39779 7.01723C6.99475 6.35432 7.72228 5.8933 8.59294 5.67143C8.63623 5.66044 8.67796 5.64743 8.72575 5.66134C8.75581 5.67009 8.79327 5.66515 8.79394 5.61557C8.79439 5.57026 8.76164 5.56106 8.73158 5.56869C8.65194 5.58888 8.58149 5.55635 8.50971 5.53638C7.55851 5.27099 6.80317 4.72024 6.18108 3.96265C5.66533 3.33451 5.28889 2.63031 4.96517 1.89022C4.71706 1.32287 4.5571 0.731967 4.43708 0.127601C4.43237 0.103821 4.43259 0.0809384 4.44089 0.058056C4.45637 0.0140858 4.44224 -0.00543209 4.39715 0.00129804Z" fill="url(#paint2_linear_4_314)"/>
<path d="M4.39715 0.00129804C4.35228 -0.00363739 4.33725 0.0125155 4.35317 0.054691C4.36394 0.0827332 4.36013 0.111673 4.35497 0.140388C4.21297 0.923999 3.9496 1.66521 3.60748 2.38376C3.29745 3.03479 2.91136 3.63288 2.43486 4.17106C1.83027 4.8535 1.09333 5.33044 0.203832 5.55837C0.158515 5.57003 0.114763 5.58237 0.0656328 5.56891C0.037591 5.56128 0.00237179 5.56577 0.000127792 5.61198C-0.00211525 5.65708 0.0292969 5.66897 0.0598068 5.66156C0.14528 5.64092 0.220876 5.67525 0.297823 5.69746C0.929558 5.87962 1.4931 6.18337 1.98978 6.61881C2.3992 6.97775 2.73032 7.39973 3.04013 7.84212C3.36497 8.30583 3.592 8.82046 3.82486 9.33285C4.08106 9.89683 4.23585 10.49 4.35609 11.0943C4.36192 11.1233 4.36282 11.152 4.35161 11.1798C4.3451 11.1962 4.34174 11.2144 4.35879 11.2236C4.38167 11.2359 4.40859 11.2334 4.43215 11.2256C4.45009 11.2195 4.45144 11.1991 4.44404 11.1834C4.42183 11.1361 4.44045 11.0903 4.44875 11.0448C4.59569 10.2351 4.88261 9.47553 5.24133 8.73701C5.5471 8.10752 5.93207 7.53433 6.39779 7.01723C6.99475 6.35432 7.72228 5.8933 8.59294 5.67143C8.63623 5.66044 8.67796 5.64743 8.72575 5.66134C8.75581 5.67009 8.79327 5.66515 8.79394 5.61557C8.79439 5.57026 8.76164 5.56106 8.73158 5.56869C8.65194 5.58888 8.58149 5.55635 8.50971 5.53638C7.55851 5.27099 6.80317 4.72024 6.18108 3.96265C5.66533 3.33451 5.28889 2.63031 4.96517 1.89022C4.71706 1.32287 4.5571 0.731967 4.43708 0.127601C4.43237 0.103821 4.43259 0.0809384 4.44089 0.058056C4.45637 0.0140858 4.44224 -0.00543209 4.39715 0.00129804Z" fill="url(#paint3_linear_4_314)"/>
<path d="M7.76043 13.7691C7.71556 13.7642 7.70053 13.7803 7.71646 13.8225C7.72723 13.8505 7.72342 13.8795 7.71826 13.9082C7.57625 14.6918 7.31288 15.433 6.97076 16.1516C6.66073 16.8026 6.27464 17.4007 5.79814 17.9389C5.19355 18.6213 4.45661 19.0983 3.56711 19.3262C3.5218 19.3378 3.47805 19.3502 3.42892 19.3367C3.40088 19.3291 3.36565 19.3336 3.36341 19.3798C3.36117 19.4249 3.39258 19.4368 3.42309 19.4294C3.50856 19.4087 3.58416 19.4431 3.66111 19.4653C4.29285 19.6474 4.85638 19.9512 5.35306 20.3866C5.76248 20.7456 6.0936 21.1675 6.40341 21.6099C6.72826 22.0736 6.95528 22.5883 7.18814 23.1007C7.44434 23.6646 7.59913 24.2578 7.71938 24.8622C7.72521 24.8911 7.7261 24.9198 7.71489 24.9476C7.70838 24.964 7.70502 24.9822 7.72207 24.9914C7.74495 25.0037 7.77187 25.0012 7.79543 24.9934C7.81337 24.9873 7.81472 24.9669 7.80732 24.9512C7.78511 24.9039 7.80373 24.8581 7.81203 24.8126C7.95897 24.0029 8.2459 23.2433 8.60461 22.5048C8.91038 21.8753 9.29535 21.3021 9.76107 20.785C10.358 20.1221 11.0856 19.6611 11.9562 19.4392C11.9993 19.4283 12.0412 19.4152 12.089 19.4292C12.1191 19.4379 12.1565 19.433 12.1572 19.3834C12.1577 19.3381 12.1249 19.3289 12.0949 19.3365C12.0152 19.3567 11.9448 19.3242 11.873 19.3042C10.9218 19.0388 10.1664 18.4881 9.54436 17.7305C9.02861 17.1023 8.65217 16.3981 8.32845 15.658C8.08034 15.0907 7.92038 14.4998 7.80036 13.8954C7.79565 13.8716 7.79588 13.8488 7.80418 13.8259C7.81943 13.7821 7.8053 13.7624 7.76043 13.7691Z" fill="#F2C300"/>
<path d="M7.76043 13.7691C7.71556 13.7642 7.70053 13.7803 7.71646 13.8225C7.72723 13.8505 7.72342 13.8795 7.71826 13.9082C7.57625 14.6918 7.31288 15.433 6.97076 16.1516C6.66073 16.8026 6.27464 17.4007 5.79814 17.9389C5.19355 18.6213 4.45661 19.0983 3.56711 19.3262C3.5218 19.3378 3.47805 19.3502 3.42892 19.3367C3.40088 19.3291 3.36565 19.3336 3.36341 19.3798C3.36117 19.4249 3.39258 19.4368 3.42309 19.4294C3.50856 19.4087 3.58416 19.4431 3.66111 19.4653C4.29285 19.6474 4.85638 19.9512 5.35306 20.3866C5.76248 20.7456 6.0936 21.1675 6.40341 21.6099C6.72826 22.0736 6.95528 22.5883 7.18814 23.1007C7.44434 23.6646 7.59913 24.2578 7.71938 24.8622C7.72521 24.8911 7.7261 24.9198 7.71489 24.9476C7.70838 24.964 7.70502 24.9822 7.72207 24.9914C7.74495 25.0037 7.77187 25.0012 7.79543 24.9934C7.81337 24.9873 7.81472 24.9669 7.80732 24.9512C7.78511 24.9039 7.80373 24.8581 7.81203 24.8126C7.95897 24.0029 8.2459 23.2433 8.60461 22.5048C8.91038 21.8753 9.29535 21.3021 9.76107 20.785C10.358 20.1221 11.0856 19.6611 11.9562 19.4392C11.9993 19.4283 12.0412 19.4152 12.089 19.4292C12.1191 19.4379 12.1565 19.433 12.1572 19.3834C12.1577 19.3381 12.1249 19.3289 12.0949 19.3365C12.0152 19.3567 11.9448 19.3242 11.873 19.3042C10.9218 19.0388 10.1664 18.4881 9.54436 17.7305C9.02861 17.1023 8.65217 16.3981 8.32845 15.658C8.08034 15.0907 7.92038 14.4998 7.80036 13.8954C7.79565 13.8716 7.79588 13.8488 7.80418 13.8259C7.81943 13.7821 7.8053 13.7624 7.76043 13.7691Z" fill="url(#paint4_linear_4_314)"/>
<path d="M7.76043 13.7691C7.71556 13.7642 7.70053 13.7803 7.71646 13.8225C7.72723 13.8505 7.72342 13.8795 7.71826 13.9082C7.57625 14.6918 7.31288 15.433 6.97076 16.1516C6.66073 16.8026 6.27464 17.4007 5.79814 17.9389C5.19355 18.6213 4.45661 19.0983 3.56711 19.3262C3.5218 19.3378 3.47805 19.3502 3.42892 19.3367C3.40088 19.3291 3.36565 19.3336 3.36341 19.3798C3.36117 19.4249 3.39258 19.4368 3.42309 19.4294C3.50856 19.4087 3.58416 19.4431 3.66111 19.4653C4.29285 19.6474 4.85638 19.9512 5.35306 20.3866C5.76248 20.7456 6.0936 21.1675 6.40341 21.6099C6.72826 22.0736 6.95528 22.5883 7.18814 23.1007C7.44434 23.6646 7.59913 24.2578 7.71938 24.8622C7.72521 24.8911 7.7261 24.9198 7.71489 24.9476C7.70838 24.964 7.70502 24.9822 7.72207 24.9914C7.74495 25.0037 7.77187 25.0012 7.79543 24.9934C7.81337 24.9873 7.81472 24.9669 7.80732 24.9512C7.78511 24.9039 7.80373 24.8581 7.81203 24.8126C7.95897 24.0029 8.2459 23.2433 8.60461 22.5048C8.91038 21.8753 9.29535 21.3021 9.76107 20.785C10.358 20.1221 11.0856 19.6611 11.9562 19.4392C11.9993 19.4283 12.0412 19.4152 12.089 19.4292C12.1191 19.4379 12.1565 19.433 12.1572 19.3834C12.1577 19.3381 12.1249 19.3289 12.0949 19.3365C12.0152 19.3567 11.9448 19.3242 11.873 19.3042C10.9218 19.0388 10.1664 18.4881 9.54436 17.7305C9.02861 17.1023 8.65217 16.3981 8.32845 15.658C8.08034 15.0907 7.92038 14.4998 7.80036 13.8954C7.79565 13.8716 7.79588 13.8488 7.80418 13.8259C7.81943 13.7821 7.8053 13.7624 7.76043 13.7691Z" fill="url(#paint5_linear_4_314)"/>
<path d="M17.7386 0.910094C17.7184 0.907851 17.7115 0.915254 17.7189 0.934322C17.7238 0.94711 17.722 0.960121 17.7198 0.973133C17.6556 1.32759 17.5363 1.6632 17.3815 1.98826C17.2413 2.28282 17.0665 2.55359 16.8509 2.797C16.5775 3.10591 16.2439 3.32172 15.8414 3.4247C15.821 3.42986 15.801 3.43546 15.7788 3.42941C15.766 3.42604 15.7501 3.42806 15.7492 3.44892C15.7483 3.46934 15.7624 3.47472 15.7761 3.47136C15.8147 3.46194 15.849 3.47764 15.8838 3.48751C16.1696 3.56984 16.4247 3.70736 16.6495 3.90433C16.8348 4.06675 16.9846 4.25766 17.1249 4.45777C17.2718 4.66753 17.3745 4.90039 17.48 5.13235C17.596 5.38765 17.666 5.65596 17.7202 5.92943C17.7229 5.94266 17.7234 5.95545 17.7182 5.96801C17.7153 5.97541 17.7137 5.98372 17.7214 5.98775C17.7317 5.99336 17.744 5.99224 17.7546 5.98865C17.7626 5.98596 17.7633 5.97676 17.76 5.96958C17.7499 5.94805 17.7584 5.92741 17.762 5.90677C17.8284 5.54042 17.9583 5.19674 18.1207 4.86247C18.2591 4.57757 18.4332 4.31823 18.6441 4.08425C18.9142 3.78431 19.2435 3.57567 19.6374 3.47517C19.657 3.47024 19.676 3.46418 19.6976 3.47069C19.7112 3.47472 19.7281 3.47248 19.7285 3.45005C19.7287 3.42963 19.7139 3.42537 19.7002 3.42873C19.6641 3.43793 19.6323 3.42313 19.5997 3.41415C19.1692 3.29413 18.8276 3.04489 18.546 2.7021C18.3127 2.41787 18.1422 2.09908 17.996 1.76437C17.8838 1.50751 17.8113 1.24032 17.757 0.966852C17.7548 0.956083 17.755 0.945764 17.7588 0.935444C17.7656 0.915927 17.7591 0.907178 17.7386 0.910094Z" fill="#F2C300"/>
<path d="M17.7386 0.910094C17.7184 0.907851 17.7115 0.915254 17.7189 0.934322C17.7238 0.94711 17.722 0.960121 17.7198 0.973133C17.6556 1.32759 17.5363 1.6632 17.3815 1.98826C17.2413 2.28282 17.0665 2.55359 16.8509 2.797C16.5775 3.10591 16.2439 3.32172 15.8414 3.4247C15.821 3.42986 15.801 3.43546 15.7788 3.42941C15.766 3.42604 15.7501 3.42806 15.7492 3.44892C15.7483 3.46934 15.7624 3.47472 15.7761 3.47136C15.8147 3.46194 15.849 3.47764 15.8838 3.48751C16.1696 3.56984 16.4247 3.70736 16.6495 3.90433C16.8348 4.06675 16.9846 4.25766 17.1249 4.45777C17.2718 4.66753 17.3745 4.90039 17.48 5.13235C17.596 5.38765 17.666 5.65596 17.7202 5.92943C17.7229 5.94266 17.7234 5.95545 17.7182 5.96801C17.7153 5.97541 17.7137 5.98372 17.7214 5.98775C17.7317 5.99336 17.744 5.99224 17.7546 5.98865C17.7626 5.98596 17.7633 5.97676 17.76 5.96958C17.7499 5.94805 17.7584 5.92741 17.762 5.90677C17.8284 5.54042 17.9583 5.19674 18.1207 4.86247C18.2591 4.57757 18.4332 4.31823 18.6441 4.08425C18.9142 3.78431 19.2435 3.57567 19.6374 3.47517C19.657 3.47024 19.676 3.46418 19.6976 3.47069C19.7112 3.47472 19.7281 3.47248 19.7285 3.45005C19.7287 3.42963 19.7139 3.42537 19.7002 3.42873C19.6641 3.43793 19.6323 3.42313 19.5997 3.41415C19.1692 3.29413 18.8276 3.04489 18.546 2.7021C18.3127 2.41787 18.1422 2.09908 17.996 1.76437C17.8838 1.50751 17.8113 1.24032 17.757 0.966852C17.7548 0.956083 17.755 0.945764 17.7588 0.935444C17.7656 0.915927 17.7591 0.907178 17.7386 0.910094Z" fill="url(#paint6_linear_4_314)"/>
<path d="M17.7386 0.910094C17.7184 0.907851 17.7115 0.915254 17.7189 0.934322C17.7238 0.94711 17.722 0.960121 17.7198 0.973133C17.6556 1.32759 17.5363 1.6632 17.3815 1.98826C17.2413 2.28282 17.0665 2.55359 16.8509 2.797C16.5775 3.10591 16.2439 3.32172 15.8414 3.4247C15.821 3.42986 15.801 3.43546 15.7788 3.42941C15.766 3.42604 15.7501 3.42806 15.7492 3.44892C15.7483 3.46934 15.7624 3.47472 15.7761 3.47136C15.8147 3.46194 15.849 3.47764 15.8838 3.48751C16.1696 3.56984 16.4247 3.70736 16.6495 3.90433C16.8348 4.06675 16.9846 4.25766 17.1249 4.45777C17.2718 4.66753 17.3745 4.90039 17.48 5.13235C17.596 5.38765 17.666 5.65596 17.7202 5.92943C17.7229 5.94266 17.7234 5.95545 17.7182 5.96801C17.7153 5.97541 17.7137 5.98372 17.7214 5.98775C17.7317 5.99336 17.744 5.99224 17.7546 5.98865C17.7626 5.98596 17.7633 5.97676 17.76 5.96958C17.7499 5.94805 17.7584 5.92741 17.762 5.90677C17.8284 5.54042 17.9583 5.19674 18.1207 4.86247C18.2591 4.57757 18.4332 4.31823 18.6441 4.08425C18.9142 3.78431 19.2435 3.57567 19.6374 3.47517C19.657 3.47024 19.676 3.46418 19.6976 3.47069C19.7112 3.47472 19.7281 3.47248 19.7285 3.45005C19.7287 3.42963 19.7139 3.42537 19.7002 3.42873C19.6641 3.43793 19.6323 3.42313 19.5997 3.41415C19.1692 3.29413 18.8276 3.04489 18.546 2.7021C18.3127 2.41787 18.1422 2.09908 17.996 1.76437C17.8838 1.50751 17.8113 1.24032 17.757 0.966852C17.7548 0.956083 17.755 0.945764 17.7588 0.935444C17.7656 0.915927 17.7591 0.907178 17.7386 0.910094Z" fill="url(#paint7_linear_4_314)"/>
<defs>
<linearGradient id="paint0_linear_4_314" x1="7.41817" y1="19.1256" x2="20.9572" y2="6.00861" gradientUnits="userSpaceOnUse">
<stop stop-color="#182B68"/>
<stop offset="0.354123" stop-color="#2746AA"/>
<stop offset="0.728672" stop-color="#3D65F4"/>
</linearGradient>
<linearGradient id="paint1_linear_4_314" x1="13.9316" y1="14.2367" x2="6.40503" y2="10.0102" gradientUnits="userSpaceOnUse">
<stop stop-color="#9676F1"/>
<stop offset="0.4375" stop-color="#3D65F4"/>
<stop offset="0.910285" stop-color="#FF7B7B"/>
</linearGradient>
<linearGradient id="paint2_linear_4_314" x1="0.663707" y1="12.8367" x2="11.3285" y2="2.50407" gradientUnits="userSpaceOnUse">
<stop stop-color="#182B68"/>
<stop offset="0.354123" stop-color="#2746AA"/>
<stop offset="0.728672" stop-color="#3D65F4"/>
</linearGradient>
<linearGradient id="paint3_linear_4_314" x1="5.79457" y1="8.98572" x2="-0.134279" y2="5.65636" gradientUnits="userSpaceOnUse">
<stop stop-color="#9676F1"/>
<stop offset="0.4375" stop-color="#3D65F4"/>
<stop offset="0.910285" stop-color="#FF7B7B"/>
</linearGradient>
<linearGradient id="paint4_linear_4_314" x1="4.02699" y1="26.6045" x2="14.6918" y2="16.2719" gradientUnits="userSpaceOnUse">
<stop stop-color="#182B68"/>
<stop offset="0.354123" stop-color="#2746AA"/>
<stop offset="0.728672" stop-color="#3D65F4"/>
</linearGradient>
<linearGradient id="paint5_linear_4_314" x1="9.15785" y1="22.7535" x2="3.22901" y2="19.4242" gradientUnits="userSpaceOnUse">
<stop stop-color="#9676F1"/>
<stop offset="0.4375" stop-color="#3D65F4"/>
<stop offset="0.910285" stop-color="#FF7B7B"/>
</linearGradient>
<linearGradient id="paint6_linear_4_314" x1="16.0495" y1="6.71767" x2="20.8749" y2="2.04201" gradientUnits="userSpaceOnUse">
<stop stop-color="#182B68"/>
<stop offset="0.354123" stop-color="#2746AA"/>
<stop offset="0.728672" stop-color="#3D65F4"/>
</linearGradient>
<linearGradient id="paint7_linear_4_314" x1="18.3713" y1="4.97523" x2="15.6885" y2="3.46858" gradientUnits="userSpaceOnUse">
<stop stop-color="#9676F1"/>
<stop offset="0.4375" stop-color="#3D65F4"/>
<stop offset="0.910285" stop-color="#FF7B7B"/>
</linearGradient>
</defs>
</svg>
