<svg width="76" height="13" viewBox="0 0 76 13" fill="none" xmlns="http://www.w3.org/2000/svg">
<path d="M4.068 10.228C3.292 10.228 2.636 10.104 2.1 9.856C1.572 9.608 1.168 9.268 0.888 8.836C0.608 8.396 0.468 7.9 0.468 7.348H2.136C2.136 7.58 2.2 7.808 2.328 8.032C2.456 8.248 2.66 8.424 2.94 8.56C3.228 8.696 3.604 8.764 4.068 8.764C4.484 8.764 4.832 8.704 5.112 8.584C5.392 8.464 5.6 8.308 5.736 8.116C5.872 7.916 5.94 7.692 5.94 7.444C5.94 7.132 5.808 6.884 5.544 6.7C5.28 6.508 4.872 6.388 4.32 6.34L3.552 6.28C2.712 6.208 2.04 5.948 1.536 5.5C1.04 5.044 0.792 4.444 0.792 3.7C0.792 3.14 0.924 2.66 1.188 2.26C1.452 1.852 1.82 1.54 2.292 1.324C2.772 1.1 3.332 0.987999 3.972 0.987999C4.636 0.987999 5.208 1.104 5.688 1.336C6.168 1.568 6.54 1.896 6.804 2.32C7.068 2.736 7.2 3.228 7.2 3.796H5.532C5.532 3.556 5.472 3.336 5.352 3.136C5.24 2.928 5.068 2.764 4.836 2.644C4.612 2.516 4.324 2.452 3.972 2.452C3.636 2.452 3.356 2.508 3.132 2.62C2.908 2.732 2.74 2.884 2.628 3.076C2.516 3.268 2.46 3.476 2.46 3.7C2.46 3.972 2.56 4.212 2.76 4.42C2.96 4.62 3.276 4.736 3.708 4.768L4.476 4.84C5.1 4.888 5.648 5.02 6.12 5.236C6.592 5.452 6.956 5.744 7.212 6.112C7.476 6.48 7.608 6.924 7.608 7.444C7.608 7.996 7.464 8.484 7.176 8.908C6.888 9.324 6.476 9.648 5.94 9.88C5.412 10.112 4.788 10.228 4.068 10.228ZM12.0659 10.084C11.4659 10.084 10.9699 10.008 10.5779 9.856C10.1939 9.696 9.90594 9.432 9.71394 9.064C9.52194 8.688 9.42594 8.184 9.42594 7.552L9.43794 1.648H10.9979L10.9859 7.66C10.9859 7.98 11.0699 8.228 11.2379 8.404C11.4139 8.572 11.6619 8.656 11.9819 8.656H13.0019V10.084H12.0659ZM8.39394 4.708V3.484H13.0019V4.708H8.39394ZM16.8219 10.204C16.0699 10.204 15.4859 9.956 15.0699 9.46C14.6619 8.964 14.4579 8.228 14.4579 7.252V3.472H16.1259V7.396C16.1259 7.796 16.2379 8.116 16.4619 8.356C16.6859 8.588 16.9899 8.704 17.3739 8.704C17.7579 8.704 18.0699 8.58 18.3099 8.332C18.5579 8.084 18.6819 7.748 18.6819 7.324V3.472H20.3499V10H19.0299V7.228H19.1619C19.1619 7.884 19.0779 8.432 18.9099 8.872C18.7419 9.312 18.4899 9.644 18.1539 9.868C17.8179 10.092 17.3979 10.204 16.8939 10.204H16.8219ZM25.166 10.216C24.71 10.216 24.29 10.132 23.906 9.964C23.522 9.796 23.19 9.56 22.91 9.256C22.63 8.952 22.414 8.6 22.262 8.2C22.11 7.792 22.034 7.352 22.034 6.88V6.628C22.034 6.164 22.106 5.728 22.25 5.32C22.402 4.912 22.61 4.556 22.874 4.252C23.146 3.948 23.47 3.712 23.846 3.544C24.23 3.368 24.654 3.28 25.118 3.28C25.63 3.28 26.078 3.392 26.462 3.616C26.854 3.832 27.166 4.16 27.398 4.6C27.63 5.04 27.758 5.592 27.782 6.256L27.29 5.68V1.24H28.958V10H27.638V7.228H27.926C27.902 7.892 27.766 8.448 27.518 8.896C27.27 9.336 26.942 9.668 26.534 9.892C26.134 10.108 25.678 10.216 25.166 10.216ZM25.538 8.812C25.866 8.812 26.166 8.74 26.438 8.596C26.71 8.444 26.926 8.228 27.086 7.948C27.254 7.66 27.338 7.324 27.338 6.94V6.46C27.338 6.076 27.254 5.756 27.086 5.5C26.918 5.236 26.698 5.036 26.426 4.9C26.154 4.756 25.858 4.684 25.538 4.684C25.178 4.684 24.858 4.772 24.578 4.948C24.306 5.116 24.09 5.356 23.93 5.668C23.778 5.98 23.702 6.344 23.702 6.76C23.702 7.176 23.782 7.54 23.942 7.852C24.102 8.156 24.318 8.392 24.59 8.56C24.87 8.728 25.186 8.812 25.538 8.812ZM30.8646 12.568V11.14H32.0886C32.3206 11.14 32.5126 11.108 32.6646 11.044C32.8246 10.988 32.9566 10.892 33.0606 10.756C33.1646 10.628 33.2446 10.448 33.3006 10.216L35.0526 3.484H36.6486L34.7166 10.576C34.5886 11.064 34.4086 11.452 34.1766 11.74C33.9446 12.036 33.6446 12.248 33.2766 12.376C32.9166 12.504 32.4686 12.568 31.9326 12.568H30.8646ZM32.8926 9.856V8.536H34.2846V9.856H32.8926ZM32.3286 9.856L30.2166 3.484H31.8966L33.9006 9.856H32.3286ZM40.9167 10V1.24H43.2447L45.4407 6.472H45.6567L47.8407 1.24H50.2047V10H48.5127V2.524L48.7287 2.548L46.3647 8.212H44.6247L42.2487 2.548L42.4767 2.524V10H40.9167ZM55.5659 10.228C54.9899 10.228 54.4819 10.136 54.0419 9.952C53.6019 9.768 53.2299 9.52 52.9259 9.208C52.6219 8.888 52.3899 8.528 52.2299 8.128C52.0779 7.728 52.0019 7.312 52.0019 6.88V6.628C52.0019 6.18 52.0819 5.756 52.2419 5.356C52.4099 4.948 52.6459 4.588 52.9499 4.276C53.2619 3.956 53.6379 3.708 54.0779 3.532C54.5179 3.348 55.0139 3.256 55.5659 3.256C56.1179 3.256 56.6139 3.348 57.0539 3.532C57.4939 3.708 57.8659 3.956 58.1699 4.276C58.4819 4.588 58.7179 4.948 58.8779 5.356C59.0379 5.756 59.1179 6.18 59.1179 6.628V6.88C59.1179 7.312 59.0379 7.728 58.8779 8.128C58.7259 8.528 58.4979 8.888 58.1939 9.208C57.8899 9.52 57.5179 9.768 57.0779 9.952C56.6379 10.136 56.1339 10.228 55.5659 10.228ZM55.5659 8.8C55.9739 8.8 56.3179 8.712 56.5979 8.536C56.8779 8.352 57.0899 8.108 57.2339 7.804C57.3779 7.492 57.4499 7.14 57.4499 6.748C57.4499 6.348 57.3739 5.996 57.2219 5.692C57.0779 5.38 56.8619 5.136 56.5739 4.96C56.2939 4.776 55.9579 4.684 55.5659 4.684C55.1739 4.684 54.8339 4.776 54.5459 4.96C54.2659 5.136 54.0499 5.38 53.8979 5.692C53.7459 5.996 53.6699 6.348 53.6699 6.748C53.6699 7.14 53.7419 7.492 53.8859 7.804C54.0379 8.108 54.2539 8.352 54.5339 8.536C54.8139 8.712 55.1579 8.8 55.5659 8.8ZM63.4785 10.216C63.0225 10.216 62.6025 10.132 62.2185 9.964C61.8345 9.796 61.5025 9.56 61.2225 9.256C60.9425 8.952 60.7265 8.6 60.5745 8.2C60.4225 7.792 60.3465 7.352 60.3465 6.88V6.628C60.3465 6.164 60.4185 5.728 60.5625 5.32C60.7145 4.912 60.9225 4.556 61.1865 4.252C61.4585 3.948 61.7825 3.712 62.1585 3.544C62.5425 3.368 62.9665 3.28 63.4305 3.28C63.9425 3.28 64.3905 3.392 64.7745 3.616C65.1665 3.832 65.4785 4.16 65.7105 4.6C65.9425 5.04 66.0705 5.592 66.0945 6.256L65.6025 5.68V1.24H67.2705V10H65.9505V7.228H66.2385C66.2145 7.892 66.0785 8.448 65.8305 8.896C65.5825 9.336 65.2545 9.668 64.8465 9.892C64.4465 10.108 63.9905 10.216 63.4785 10.216ZM63.8505 8.812C64.1785 8.812 64.4785 8.74 64.7505 8.596C65.0225 8.444 65.2385 8.228 65.3985 7.948C65.5665 7.66 65.6505 7.324 65.6505 6.94V6.46C65.6505 6.076 65.5665 5.756 65.3985 5.5C65.2305 5.236 65.0105 5.036 64.7385 4.9C64.4665 4.756 64.1705 4.684 63.8505 4.684C63.4905 4.684 63.1705 4.772 62.8905 4.948C62.6185 5.116 62.4025 5.356 62.2425 5.668C62.0905 5.98 62.0145 6.344 62.0145 6.76C62.0145 7.176 62.0945 7.54 62.2545 7.852C62.4145 8.156 62.6305 8.392 62.9025 8.56C63.1825 8.728 63.4985 8.812 63.8505 8.812ZM72.2851 10.228C71.7251 10.228 71.2331 10.132 70.8091 9.94C70.3931 9.748 70.0451 9.492 69.7651 9.172C69.4931 8.844 69.2851 8.48 69.1411 8.08C69.0051 7.68 68.9371 7.272 68.9371 6.856V6.628C68.9371 6.196 69.0051 5.78 69.1411 5.38C69.2851 4.972 69.4931 4.612 69.7651 4.3C70.0451 3.98 70.3891 3.728 70.7971 3.544C71.2051 3.352 71.6771 3.256 72.2131 3.256C72.9171 3.256 73.5051 3.412 73.9771 3.724C74.4571 4.028 74.8171 4.432 75.0571 4.936C75.2971 5.432 75.4171 5.968 75.4171 6.544V7.144H69.6451V6.124H74.3731L73.8571 6.628C73.8571 6.212 73.7971 5.856 73.6771 5.56C73.5571 5.264 73.3731 5.036 73.1251 4.876C72.8851 4.716 72.5811 4.636 72.2131 4.636C71.8451 4.636 71.5331 4.72 71.2771 4.888C71.0211 5.056 70.8251 5.3 70.6891 5.62C70.5611 5.932 70.4971 6.308 70.4971 6.748C70.4971 7.156 70.5611 7.52 70.6891 7.84C70.8171 8.152 71.0131 8.4 71.2771 8.584C71.5411 8.76 71.8771 8.848 72.2851 8.848C72.6931 8.848 73.0251 8.768 73.2811 8.608C73.5371 8.44 73.7011 8.236 73.7731 7.996H75.3091C75.2131 8.444 75.0291 8.836 74.7571 9.172C74.4851 9.508 74.1371 9.768 73.7131 9.952C73.2971 10.136 72.8211 10.228 72.2851 10.228Z" fill="#9CAACE"/>
</svg>
