<svg width="23" height="23" viewBox="0 0 23 23" fill="none" xmlns="http://www.w3.org/2000/svg">
<path d="M11.4995 21.16C11.212 21.16 10.9245 21.0929 10.685 20.9587C8.89288 19.9812 5.74952 18.9462 3.77536 18.6875L3.49746 18.6492C2.24205 18.4958 1.20703 17.3171 1.20703 16.0425V4.4658C1.20703 3.70872 1.50412 3.01875 2.05037 2.52041C2.59662 2.02208 3.30575 1.78249 4.05325 1.84957C6.152 2.02207 9.33368 3.07625 11.1353 4.1975L11.3653 4.33168C11.4324 4.36043 11.5762 4.37001 11.6337 4.33168L11.787 4.23581C12.4291 3.83331 13.2341 3.44038 14.1158 3.0858C14.3362 2.99955 14.5853 3.02832 14.7866 3.16248C14.9878 3.29665 15.1029 3.51706 15.1029 3.75664V6.32497L15.8983 5.7979C16.1379 5.63498 16.4541 5.63498 16.6937 5.7979L17.4891 6.32497V2.66419C17.4891 2.31919 17.7383 2.02206 18.0737 1.95497C18.3516 1.90706 18.6295 1.86874 18.8787 1.84957C18.8979 1.84957 18.9745 1.84957 18.9937 1.84957C19.6933 1.79207 20.412 2.03167 20.9487 2.53001C21.4949 3.02834 21.792 3.71831 21.792 4.47539V16.0425C21.792 17.3266 20.757 18.4958 19.492 18.6492L19.1758 18.6875C17.2016 18.9462 14.0391 19.9908 12.2854 20.9587C12.0745 21.0929 11.787 21.16 11.4995 21.16ZM3.81367 3.26788C3.507 3.26788 3.22912 3.37331 3.0087 3.57456C2.76912 3.79497 2.63494 4.11122 2.63494 4.4658V16.0425C2.63494 16.6079 3.1237 17.1541 3.66995 17.2308L3.95744 17.2692C6.11369 17.5567 9.41995 18.6396 11.3366 19.6937C11.4229 19.7321 11.5474 19.7417 11.5953 19.7225C13.5216 18.6588 16.8375 17.5663 19.0033 17.2788L19.3291 17.2404C19.8753 17.1733 20.3641 16.6175 20.3641 16.0521V4.48499C20.3641 4.1304 20.2299 3.82374 19.9903 3.59374C19.7508 3.37333 19.4154 3.2679 19.0704 3.28707C19.0416 3.28707 18.9554 3.28707 18.9362 3.28707V7.66666C18.9362 7.93499 18.7924 8.17455 18.5528 8.29913C18.3133 8.42372 18.0354 8.41416 17.815 8.26082L16.3008 7.25458L14.7866 8.26082C14.5662 8.40457 14.2882 8.42372 14.0487 8.29913C13.8187 8.17455 13.6654 7.93499 13.6654 7.66666V4.85875C13.2533 5.06 12.8795 5.26125 12.5537 5.45291L12.4004 5.54872C11.8733 5.87456 11.1258 5.87457 10.6179 5.55831L10.3879 5.4146C8.7683 4.39877 5.81659 3.42122 3.93826 3.26788C3.89034 3.26788 3.852 3.26788 3.81367 3.26788Z" fill="#A0B6FD"/>
<path d="M11.5 20.355C11.1071 20.355 10.7812 20.0291 10.7812 19.6362V5.26123C10.7812 4.86831 11.1071 4.54248 11.5 4.54248C11.8929 4.54248 12.2188 4.86831 12.2188 5.26123V19.6362C12.2188 20.0387 11.8929 20.355 11.5 20.355Z" fill="#A0B6FD"/>
<path d="M18.2083 8.38547C18.0646 8.38547 17.9304 8.34713 17.8058 8.26088L16.2917 7.25464L14.7775 8.26088C14.5571 8.40463 14.2792 8.42377 14.0396 8.29919C13.8096 8.17461 13.6562 7.93505 13.6562 7.66672V3.7567C13.6562 3.45962 13.8383 3.20086 14.1066 3.08586C15.4291 2.55877 16.8763 2.1467 18.0933 1.95503C18.3042 1.9167 18.515 1.98382 18.6779 2.11799C18.8408 2.25215 18.9271 2.45341 18.9271 2.66425V7.66672C18.9271 7.93505 18.7833 8.17461 18.5437 8.29919C18.4383 8.35669 18.3233 8.38547 18.2083 8.38547ZM16.2917 5.67337C16.4258 5.67337 16.5696 5.71171 16.6941 5.79796L17.4896 6.32503V3.5363C16.7229 3.7088 15.8892 3.95797 15.0937 4.25505V6.32503L15.8892 5.79796C16.0138 5.71171 16.1575 5.67337 16.2917 5.67337Z" fill="#A0B6FD"/>
</svg>
