<svg width="14" height="14" viewBox="0 0 14 14" fill="none" xmlns="http://www.w3.org/2000/svg">
<path d="M6.61052 1.10168C3.57536 1.10168 1.10205 3.57499 1.10205 6.61016C1.10205 9.64533 3.57536 12.1186 6.61052 12.1186C9.64569 12.1186 12.119 9.64533 12.119 6.61016C12.119 3.57499 9.64569 1.10168 6.61052 1.10168ZM9.24358 5.34321L6.12027 8.46651C6.04315 8.54363 5.93849 8.5877 5.82832 8.5877C5.71815 8.5877 5.61349 8.54363 5.53637 8.46651L3.97747 6.90762C3.81773 6.74787 3.81773 6.48346 3.97747 6.32372C4.13722 6.16397 4.40163 6.16397 4.56137 6.32372L5.82832 7.59067L8.65968 4.75931C8.81942 4.59957 9.08383 4.59957 9.24358 4.75931C9.40332 4.91906 9.40332 5.17796 9.24358 5.34321Z" fill="#27AE7A"/>
</svg>
