<svg width="23" height="23" viewBox="0 0 23 23" fill="none" xmlns="http://www.w3.org/2000/svg">
<path d="M8.30859 21.802H1.9165C1.52359 21.802 1.19775 21.4762 1.19775 21.0833V15.3333C1.19775 13.8766 2.3765 12.6979 3.83317 12.6979H8.30859C8.7015 12.6979 9.02734 13.0237 9.02734 13.4166V21.0833C9.02734 21.4762 8.7015 21.802 8.30859 21.802ZM2.63525 20.3645H7.58984V14.1354H3.83317C3.17192 14.1354 2.63525 14.672 2.63525 15.3333V20.3645Z" fill="#A0B6FD"/>
<path d="M14.6914 21.8021H8.29932C7.9064 21.8021 7.58057 21.4763 7.58057 21.0834V11.5C7.58057 10.0434 8.75932 8.86462 10.216 8.86462H12.7747C14.2314 8.86462 15.4102 10.0434 15.4102 11.5V21.0834C15.4102 21.4763 15.0939 21.8021 14.6914 21.8021ZM9.02765 20.3646H13.9822V11.5C13.9822 10.8388 13.4456 10.3021 12.7843 10.3021H10.2256C9.56431 10.3021 9.02765 10.8388 9.02765 11.5V20.3646Z" fill="#A0B6FD"/>
<path d="M21.0835 21.802H14.6914C14.2985 21.802 13.9727 21.4762 13.9727 21.0833V16.2916C13.9727 15.8987 14.2985 15.5729 14.6914 15.5729H19.1668C20.6235 15.5729 21.8022 16.7516 21.8022 18.2083V21.0833C21.8022 21.4762 21.4764 21.802 21.0835 21.802ZM15.4102 20.3645H20.3647V18.2083C20.3647 17.547 19.8281 17.0104 19.1668 17.0104H15.4102V20.3645Z" fill="#A0B6FD"/>
<path d="M13.1293 8.00202C12.8993 8.00202 12.6118 7.93492 12.2859 7.74325L11.5001 7.27368L10.7238 7.73369C9.93802 8.20327 9.42052 7.92535 9.22885 7.79118C9.03718 7.65702 8.6251 7.23535 8.82635 6.35368L9.00843 5.55825L8.35677 4.90659C7.95427 4.50409 7.81052 4.02492 7.95427 3.58409C8.09802 3.14325 8.49093 2.83658 9.04677 2.74075L9.88052 2.597L10.3501 1.65786C10.8676 0.63244 12.123 0.63244 12.6309 1.65786L13.1005 2.597L13.9343 2.74075C14.4901 2.83658 14.8926 3.14325 15.0268 3.58409C15.1705 4.02492 15.0172 4.50409 14.6243 4.90659L13.9726 5.55825L14.1547 6.35368C14.3559 7.24493 13.9438 7.65703 13.7522 7.80078C13.6659 7.87744 13.4455 8.00202 13.1293 8.00202ZM11.5001 5.82658C11.7301 5.82658 11.9601 5.88411 12.1518 5.99911L12.6884 6.31534L12.5734 5.79783C12.4776 5.39533 12.6213 4.90659 12.9184 4.60951L13.4072 4.12075L12.8034 4.01535C12.4201 3.94827 12.0463 3.67035 11.8738 3.32535L11.5001 2.6066L11.1359 3.32535C10.9634 3.67035 10.5897 3.94827 10.2064 4.01535L9.6026 4.11119L10.0913 4.59992C10.3884 4.897 10.5226 5.38577 10.4363 5.78827L10.3214 6.30575L10.858 5.98951C11.0401 5.87451 11.2701 5.82658 11.5001 5.82658Z" fill="#A0B6FD"/>
</svg>
